<svg xmlns="http://www.w3.org/2000/svg" width="407" height="61" viewBox="0 0 407 61" fill="none"><g clip-path="url(#clip0_1600_872)"><path d="M69.1064 7.55975H72.1492L77.4186 27.4132H63.8392L69.1064 7.55975ZM78.6344 0.535156H61.9776L0 60.4733H55.0648L60.8331 38.7307H80.4204L86.1886 60.4733H141.253L79.278 0.535156H78.6366H78.6344Z" fill="white"></path><path d="M320.016 60.4599H327.186V39.4816H335.289V34.4352H312.095V39.4816H320.016V60.4599ZM314.775 60.4599V55.4135H303.053V34.4352H295.883V60.4599H314.775ZM275.02 50.3323L278.533 39.5186H278.641L281.939 50.3323H275.02ZM271.506 60.4599L273.19 55.3766H283.695L285.416 60.4599H293.518L283.301 34.4352H274.555L264.338 60.4599H271.508H271.506ZM245.982 60.4599V49.7894H254.802V60.4599H261.971V34.4352H254.802V44.7452H246.019V34.4352H238.812V60.4599H245.982ZM220.711 46.1132V39.4816H224.403C227.235 39.5902 228.418 40.8887 228.418 42.7974C228.418 44.7061 227.235 46.0046 224.403 46.1132H220.711ZM220.711 60.4599V51.1596H225.442C231.787 51.1596 235.946 49.1054 235.946 42.7974C235.946 36.4894 231.789 34.4352 225.442 34.4352H213.541V60.4599H220.711ZM208.844 42.0765C209.273 35.8054 203.788 33.8945 198.447 33.8945C193.107 33.8945 187.658 35.5883 187.371 41.753C187.371 44.565 188.66 46.9449 191.278 48.0979C196.906 50.5842 202.212 49.8285 202.212 53.3593C202.212 55.0899 200.097 55.9542 198.447 55.9542C195.867 55.9542 194.074 54.6209 194.109 52.1693H186.939C187.047 59.2352 192.353 61.0006 198.374 61.0006C204.395 61.0006 209.738 58.4057 209.738 52.925C209.738 45.8961 203.43 45.4639 199.091 44.3457C197.191 43.8419 194.897 43.2274 194.897 41.3187C194.897 40.0202 196.331 38.9388 197.979 38.9388C199.197 38.9388 200.13 39.2276 200.739 39.7683C201.384 40.309 201.706 41.0646 201.672 42.0743H208.842L208.844 42.0765ZM166.937 50.3323L170.451 39.5186H170.559L173.856 50.3323H166.937ZM163.423 60.4599L165.108 55.3766H175.612L177.333 60.4599H185.436L175.219 34.4352H166.473L156.256 60.4599H163.426H163.423Z" fill="white"></path><path d="M388.59 5.58711H391.959C395.865 5.58711 399.558 8.18197 399.558 13.5541C399.558 18.9262 395.865 21.5189 391.959 21.5189H388.59V5.58711ZM381.42 0.540688V26.5654H392.354C401.245 26.5654 407.089 23.1779 407.089 13.5541C407.089 3.9303 401.245 0.540688 392.354 0.540688H381.42ZM377.656 26.5654V21.5189H365.109V16.0035H376.651V10.9571H365.109V5.58493H377.656V0.540688H357.939V26.5654H377.656ZM340.194 26.5654H347.363V5.58711H355.466V0.540688H332.272V5.58711H340.194V26.5654ZM316.103 16.4378L319.617 5.62402H319.725L323.023 16.4378H316.103ZM312.588 26.5654L314.274 21.482H324.779L326.5 26.5654H334.6L324.383 0.540688H315.637L305.42 26.5654H312.59H312.588ZM303.053 0.540688H295.883V26.5654H303.053V0.540688ZM292.335 8.72266C292.443 2.16275 286.204 0 279.933 0C271.867 0.0716574 267.528 4.79453 267.528 13.5172C267.528 22.2399 271.867 27.106 279.933 27.106C286.206 27.106 292.443 24.8 292.335 18.2379H284.807C284.662 20.7242 282.943 22.0596 279.931 22.0596C275.879 22.0596 275.054 17.5908 275.054 13.806C275.054 10.0212 275.806 5.04642 279.931 5.04642C282.87 5.04642 284.626 6.37968 284.807 8.72266H292.335ZM251.396 27.106C259.965 27.106 264.805 22.1313 264.805 13.5541C264.805 4.97693 259.963 0 251.396 0C242.829 0 237.99 4.97476 237.99 13.5541C237.99 22.1335 242.829 27.106 251.396 27.106ZM257.275 13.6627C257.275 17.5191 256.27 22.0618 251.394 22.0618C246.518 22.0618 245.516 17.5191 245.516 13.6627C245.516 9.58906 246.52 5.04642 251.394 5.04642C256.268 5.04642 257.275 9.58906 257.275 13.6627ZM234.368 8.18197C234.798 1.91086 229.312 0 223.972 0C218.631 0 213.18 1.69372 212.893 7.85843C212.893 10.6704 214.185 13.0503 216.802 14.2034C222.43 16.6897 227.736 15.934 227.736 19.4648C227.736 21.1954 225.622 22.0596 223.972 22.0596C221.391 22.0596 219.599 20.7264 219.633 18.2748H212.463C212.571 25.3407 217.875 27.106 223.898 27.106C229.921 27.106 235.262 24.5112 235.262 19.0305C235.262 12.0015 228.954 11.5694 224.615 10.4511C222.715 9.94735 220.421 9.33283 220.421 7.42414C220.421 6.12562 221.855 5.04425 223.505 5.04425C224.723 5.04425 225.656 5.33305 226.265 5.87374C226.911 6.41442 227.233 7.17008 227.196 8.1798H234.366L234.368 8.18197ZM208.844 8.18197C209.274 1.91086 203.788 0 198.448 0C193.107 0 187.658 1.69372 187.371 7.85843C187.371 10.6704 188.66 13.0503 191.278 14.2034C196.906 16.6897 202.212 15.934 202.212 19.4648C202.212 21.1954 200.098 22.0596 198.448 22.0596C195.867 22.0596 194.075 20.7264 194.109 18.2748H186.939C187.047 25.3407 192.353 27.106 198.374 27.106C204.395 27.106 209.738 24.5112 209.738 19.0305C209.738 12.0015 203.43 11.5694 199.091 10.4511C197.191 9.94735 194.897 9.33283 194.897 7.42414C194.897 6.12562 196.331 5.04425 197.979 5.04425C199.197 5.04425 200.13 5.33305 200.739 5.87374C201.385 6.41442 201.706 7.17008 201.672 8.1798H208.842L208.844 8.18197ZM166.937 16.4378L170.451 5.62402H170.559L173.857 16.4378H166.937ZM163.424 26.5654L165.108 21.482H175.612L177.334 26.5654H185.436L175.217 0.540688H166.471L156.254 26.5654H163.424Z" fill="white"></path></g><defs><clipPath id="clip0_1600_872"><rect width="407" height="61" fill="white"></rect></clipPath></defs></svg>