<?xml version="1.0" encoding="UTF-8" standalone="no"?>
<!-- Created with Inkscape (http://www.inkscape.org/) -->

<svg
   xmlns:dc="http://purl.org/dc/elements/1.1/"
   xmlns:cc="http://creativecommons.org/ns#"
   xmlns:rdf="http://www.w3.org/1999/02/22-rdf-syntax-ns#"
   xmlns:svg="http://www.w3.org/2000/svg"
   xmlns="http://www.w3.org/2000/svg"
   xmlns:sodipodi="http://sodipodi.sourceforge.net/DTD/sodipodi-0.dtd"
   xmlns:inkscape="http://www.inkscape.org/namespaces/inkscape"
   width="227.72179"
   height="66.719131"
   viewBox="0 0 60.251387 17.65277"
   version="1.1"
   id="svg1319"
   inkscape:version="0.92.0 r15299"
   sodipodi:docname="bellway.svg">
  <defs
     id="defs1313">
    <clipPath
       id="clipPath894"
       clipPathUnits="userSpaceOnUse">
      <path
         inkscape:connector-curvature="0"
         id="path892"
         d="M 332.599,735.28 H 509.28 v 64.09 H 332.599 Z" />
    </clipPath>
  </defs>
  <sodipodi:namedview
     id="base"
     pagecolor="#ffffff"
     bordercolor="#666666"
     borderopacity="1.0"
     inkscape:pageopacity="0.0"
     inkscape:pageshadow="2"
     inkscape:zoom="3.9739186"
     inkscape:cx="112.86089"
     inkscape:cy="32.359567"
     inkscape:document-units="mm"
     inkscape:current-layer="layer1"
     showgrid="false"
     fit-margin-top="0"
     fit-margin-left="0"
     fit-margin-right="0"
     fit-margin-bottom="0"
     units="px"
     inkscape:window-width="1280"
     inkscape:window-height="744"
     inkscape:window-x="-4"
     inkscape:window-y="-4"
     inkscape:window-maximized="1" />
  <metadata
     id="metadata1316">
    <rdf:RDF>
      <cc:Work
         rdf:about="">
        <dc:format>image/svg+xml</dc:format>
        <dc:type
           rdf:resource="http://purl.org/dc/dcmitype/StillImage" />
        <dc:title></dc:title>
      </cc:Work>
    </rdf:RDF>
  </metadata>
  <g
     inkscape:label="Layer 1"
     inkscape:groupmode="layer"
     id="layer1"
     transform="translate(-20.136985,-161.86074)">
    <g
       id="g1509"
       transform="translate(0.26460054,-0.26457087)">
      <path
         inkscape:connector-curvature="0"
         id="path900"
         style="fill:#f37021;fill-opacity:1;fill-rule:evenodd;stroke:none;stroke-width:0.33131278"
         d="m 73.166681,177.32903 c -0.676438,0.0871 -1.531255,0.37658 -3.414926,0.60792 -2.444196,0.2895 -4.094371,0.37428 -6.608716,0.23922 -3.903297,-0.20998 -5.994743,-0.79391 -7.408081,-0.96281 -2.502653,-0.45906 -2.413798,-0.20242 -0.794355,0.37658 3.533511,1.39 7.440817,1.91149 10.642958,1.92332 4.668591,0.0174 8.143979,-0.92009 8.378477,-1.05515 0.35275,-0.20274 -0.324356,-1.27334 -0.795357,-1.12908" />
      <path
         id="path906"
         transform="scale(0.26458333)"
         d="m 185.47852,629.04297 c -1.62866,0 -3.00027,0.35877 -2.57227,1.74219 l 8.72656,28.44922 0.10352,0.33398 c 0.16917,0.66195 1.20174,1.01953 1.88476,1.01953 h 3.25782 c 0.94311,0 1.45668,-0.17956 1.79882,-0.96094 l 0.17969,-0.39257 7.91797,-17.62891 c 0.60349,-1.20223 2.18672,-1.16613 2.78516,0.0957 l 7.32031,17.53321 0.13867,0.33398 c 0.25758,0.66195 1.20117,1.01953 1.88672,1.01953 h 3.25586 c 0.94563,0 1.54449,-0.17956 1.80078,-0.96094 l 0.13477,-0.39257 9.46679,-27.96876 c 0.5997,-1.68162 -0.94639,-2.2207 -2.14453,-2.2207 h -2.82812 c -1.97207,0 -3.25686,0.53865 -3.6836,1.86133 l -4.95508,15.40039 c -0.25753,0.96129 -1.08693,0.96129 -1.51367,0 l -5.38867,-15.46875 c -0.43178,-0.96253 -0.94369,-1.92235 -2.6582,-1.62305 l -3.41992,-0.0391 c -0.94185,0.17991 -1.54995,1.06175 -1.98047,1.96094 l -6.50586,15.16992 c -0.428,0.84079 -1.7444,0.84079 -2.00195,0 l -4.32032,-15.46094 c -0.42673,-1.50277 -1.45728,-1.80273 -3.08594,-1.80273 z"
         style="fill:#001130;fill-opacity:1;fill-rule:evenodd;stroke:none;stroke-width:1.25220573"
         inkscape:connector-curvature="0" />
      <path
         inkscape:connector-curvature="0"
         id="path912"
         style="fill:#001130;fill-opacity:1;fill-rule:evenodd;stroke:none;stroke-width:0.33131278"
         d="m 27.848043,171.48858 v 10e-4 c 0,1.08111 -0.681115,1.9391 -2.858076,1.9391 h -0.657731 c -0.861498,0 -1.292414,0.0782 -1.292414,-0.46268 v -3.35209 c 0,0 0.24953,-0.28621 0.952692,-0.28621 h 1.065264 c 2.425824,-0.0477 2.789263,1.07946 2.790265,2.16024 v 3.3e-4 m -4.808221,-6.75545 c 0,0 0.24953,-0.47648 0.952692,-0.47648 h 0.499061 c 2.448538,-0.0476 2.811643,0.87442 2.811643,1.98708 0,1.065 -0.680112,1.92365 -2.857407,1.92365 h -0.272246 c -0.838783,0 -1.133743,-0.0339 -1.133743,-0.43146 z m 4.558022,3.8335 c -0.747923,-0.095 -0.838783,-0.13111 -0.04476,-0.27471 0.816068,-0.12652 2.177295,-0.82414 2.177295,-2.44613 0,-1.57402 -1.111697,-2.86149 -4.513929,-2.86149 h -4.036247 c -0.680781,0 -1.043218,0.11139 -1.043218,0.57276 v 10.40887 c 0,0.19552 0.06313,0.34372 0.186396,0.45577 l 0.0043,9.9e-4 h -0.0043 c 0.33705,0.3056 1.123055,0.34273 2.285526,0.34273 h 2.744167 c 0.914945,0 1.771432,-0.11139 2.506996,-0.34207 h -0.0157 l 0.0157,-6.6e-4 c 1.471795,-0.46136 2.459561,-1.40117 2.459561,-2.88515 0,-0.0164 0,-0.0325 -3.34e-4,-0.049 -0.02372,-2.18522 -1.596059,-2.76389 -2.721452,-2.92195" />
      <path
         id="path918"
         transform="scale(0.26458333)"
         d="m 271.66016,629.04492 c -1.37363,0 -2.7461,0.2382 -2.7461,1.74219 v 19.52734 c 0,3.64891 1.65071,7.09672 5.06836,8.91993 1.59205,0.84702 3.56441,1.33984 5.93164,1.33984 4.15498,0 6.60739,-0.29163 9.45313,-1.33984 1.08703,-0.40366 2.23005,-0.91616 3.54687,-1.56446 v 0.8418 c 0,0.23584 0.002,0.47551 0.002,0.72266 -0.004,2.06019 -0.14387,4.47389 -2.28907,6.20117 l -0.0215,0.0117 -2.06641,1.17187 -0.006,0.004 -0.002,0.002 c -0.1073,0.0378 -0.21771,0.0803 -0.33008,0.12109 -1.71325,0.95883 -3.51704,1.38123 -5.74414,2.10157 -1.11481,0.36019 -1.97128,1.44011 -1.2832,2.34179 l 1.2832,1.74414 c 0.51638,0.72034 1.54439,1.08187 3.08594,0.66211 3.51487,-0.96253 5.91472,-1.44498 10.0293,-4.08789 1.3408,-0.83459 2.4026,-1.79484 3.24218,-2.88281 1.58537,-2.05499 2.3733,-4.54165 2.73828,-7.38867 9e-5,-6.5e-4 -8e-5,-10e-4 0,-0.002 h 0.002 c 0.20579,-1.62203 0.27539,-3.35473 0.27539,-5.19532 v -23.01367 c 0,-1.26183 -0.68597,-1.98047 -2.48633,-1.98047 h -4.20117 c -1.71451,0 -2.39844,0.6591 -2.39844,1.86133 v 18.53125 c 0,2.82546 -3.42822,5.34961 -7.37109,5.34961 -4.20043,0 -7.45899,-2.52415 -7.45899,-5.34961 v -18.71094 c 0,-0.42104 -0.94005,-1.68164 -2.22656,-1.68164 z"
         style="fill:#001130;fill-opacity:1;fill-rule:evenodd;stroke:none;stroke-width:1.25220573"
         inkscape:connector-curvature="0" />
      <path
         inkscape:connector-curvature="0"
         id="path924"
         style="fill:#001130;fill-opacity:1;fill-rule:evenodd;stroke:none;stroke-width:0.33131278"
         d="m 67.465128,171.48858 c 0.137626,0.2665 0.147981,0.63421 0.152324,1.08242 0.01236,1.16491 -0.907262,1.39953 -2.063387,1.39953 h -0.249864 c -1.156124,0 -1.587374,-0.65195 -1.587374,-1.39953 0,-0.37789 0.107896,-0.78076 0.367781,-1.08242 h 3.34e-4 c 0.243518,-0.28129 0.620653,-0.47385 1.167482,-0.47385 l 0.828762,-0.02 c 0.830766,-0.0227 1.209237,0.15477 1.383942,0.49356 m -5.061092,2.93444 c 0.640027,0.39367 1.503863,0.61219 2.446868,0.61219 2.086435,0 2.335966,-0.23923 3.243228,-0.23923 0.227149,0 0.476346,0.0483 0.703161,0.0641 0.379808,0.0283 0.760283,-0.10975 0.844462,-0.43704 0.01102,-0.0447 0.01704,-0.0923 0.01704,-0.14262 v -4.90442 c 0,-2.44843 -1.269699,-3.17957 -4.05963,-3.17957 -1.746045,0 -1.904381,0.12684 -2.652973,0.38151 -0.248862,0.0795 -0.362771,0.20669 -0.272579,0.36573 l 0.340724,0.62041 c 0.09086,0.15871 0.317676,0.15871 0.566872,0.0946 0.657063,-0.17482 0.861832,-0.17482 1.292748,-0.17482 1.020169,0 2.381062,0.14294 2.381062,1.30324 l 0.02405,0.28951 c 0,0.71504 -0.954362,0.82808 -1.907722,0.82808 h -0.226482 c -2.291204,0 -3.299013,0.62895 -3.670803,1.5842 h -3.34e-4 c -0.131279,0.34043 -0.183056,0.72096 -0.183056,1.1304 0,0.76335 0.428912,1.38244 1.113367,1.80371" />
      <path
         inkscape:connector-curvature="0"
         id="path942"
         style="fill:#001130;fill-opacity:1;fill-rule:evenodd;stroke:none;stroke-width:0.33131278"
         d="m 36.181191,170.04321 h -1.383274 c -0.43125,0 -1.270033,-0.22214 -1.270033,-0.85864 v -0.19059 c 0,-0.71538 1.020837,-1.4784 2.290536,-1.4784 1.043217,0 1.92743,0.47681 1.92743,1.28748 0,0.92206 -0.725542,1.24015 -1.564659,1.24015 m -0.226815,-3.8473 c -2.811978,0 -4.648883,1.63744 -4.648883,3.81543 v 1.43074 0.0457 6.6e-4 c 0.01704,1.24344 0.731889,2.31798 1.989229,2.9328 l 0.0097,10e-4 h -0.0097 c 0.71385,0.34799 1.601738,0.54943 2.636939,0.54943 0.851476,0 2.227735,-0.22904 3.238217,-0.54943 h -0.03441 0.03441 c 0.120923,-0.0384 0.236168,-0.0779 0.345067,-0.1183 0.158336,-0.0641 0.430916,-0.20669 0.226481,-0.42948 l -0.612302,-0.65195 c -0.135955,-0.14295 -0.317007,-0.2067 -0.611967,-0.1114 -0.47668,0.19125 -1.746379,0.52544 -2.381396,0.52544 -1.58704,0 -2.358347,-1.01769 -2.358347,-1.90854 0,-0.0881 0.01937,-0.16824 0.05512,-0.23988 h 6.68e-4 c 0.14464,-0.29016 0.555514,-0.44394 1.009813,-0.44394 h 2.335632 c 1.497182,0 2.811977,-0.85766 2.811977,-1.71663 v -0.82644 c 0,-1.4153 -1.83657,-2.30549 -4.036246,-2.30549" />
      <path
         inkscape:connector-curvature="0"
         id="path948"
         style="fill:#001130;fill-opacity:1;fill-rule:evenodd;stroke:none;stroke-width:0.33131278"
         d="m 43.350064,174.42259 c 0.0094,-0.0375 0.0137,-0.0766 0.0137,-0.1183 v -11.4466 c 0,-0.27077 -0.134954,-0.50934 -0.498059,-0.46169 l -1.338512,0.19092 c -0.34039,0.048 -0.566872,0.20669 -0.566872,0.47713 v 11.22414 c 0,0.048 0.0067,0.093 0.01804,0.13473 h 3.34e-4 c 0.06447,0.21852 0.289615,0.3424 0.593929,0.3424 h 1.157126 c 0.348074,0 0.5642,-0.12749 0.620319,-0.34273" />
      <path
         inkscape:connector-curvature="0"
         id="path954"
         style="fill:#001130;fill-opacity:1;fill-rule:evenodd;stroke:none;stroke-width:0.33131278"
         d="m 47.065328,162.39609 -1.337844,0.19092 c -0.34039,0.048 -0.566872,0.20669 -0.566872,0.4768 v 11.22414 c 0,0.0483 0.006,0.0933 0.01804,0.13506 0.06414,0.21852 0.288947,0.34241 0.594597,0.34241 h 1.15579 c 0.348742,0 0.565202,-0.1275 0.620653,-0.34274 0.009,-0.0378 0.0147,-0.0769 0.0147,-0.11862 v -11.44661 c 0,-0.27044 -0.13629,-0.50901 -0.499061,-0.46136" />
    </g>
  </g>
</svg>
