<?xml version="1.0" encoding="utf-8"?>
<!-- Generator: Adobe Illustrator 25.0.0, SVG Export Plug-In . SVG Version: 6.00 Build 0)  -->
<svg version="1.0" id="Layer_1" xmlns="http://www.w3.org/2000/svg" xmlns:xlink="http://www.w3.org/1999/xlink" x="0px" y="0px"
	 viewBox="0 0 275.6 80" style="enable-background:new 0 0 275.6 80;" xml:space="preserve">
<style type="text/css">
	.st0{fill:#FFFFFF;}
	.st1{fill:#FAB422;}
	.st2{fill:#244C9C;}
</style>
<g>
	<g>
		<polyline class="st0" points="0.5,29.8 1.3,35.7 2.3,40.6 5,49.3 7.8,55.4 16.4,68 20.7,72 27.2,76.7 31.5,78.8 34.6,79.7 
			38.6,78.1 42.5,76.1 47.4,72.7 51.1,69.3 56.1,63.4 61,55.1 64.3,47.9 66.7,39.7 68.1,31.7 67.8,28.6 56.4,26.5 17.6,27.7 
			3.8,27.3 0.5,29.6 		"/>
		<polygon class="st1" points="68.1,16.5 66.8,7.8 64.6,0.3 4,0.3 1.8,8.1 0.5,18.1 0.6,25.6 35.4,28 40.7,26.4 49.5,28.2 
			55.7,27.3 59.9,26.3 68.4,27.4 68.4,22.5 		"/>
		<path class="st0" d="M39,25.6L38.8,23L36,18.1l-0.9-6.4l2.2-1.7L37,8.3c0,0,3.8-4.3,4-4.3s3.4-0.7,3.4-0.7l1.9-0.5l2.1,1.8
			l-0.8,2.2L48,9.7l-1.1,4.5l0.2,4.3l1.8,1l2.9-0.5l2-1.6l1.4-1.7c0,0,1-3,1-3.2S55,8.9,55,8.9l-3.2-1.5l3.3-1.7l2.6,0.5l2.2,0.1
			v3.3l1.3,4.4l-0.1,3.8c0,0-4,6.7-3.8,6.7s-4.6,4-4.6,4l-7.3-0.7C45.4,27.8,39,25.6,39,25.6z"/>
		<path class="st2" d="M44.7,6.9c-0.4-0.4-0.6-0.5-1.4-0.5c-0.8,0-1.6,0.3-2,0.7c-0.4,0.4-0.7,1.1-0.9,1.4c-0.2,0.4-0.4,0.9,0,1.5
			s1.5,1.4,2.2,1.6c0.7,0.1,2.1-0.6,2.4-1.1c0.3-0.5,0.4-1.9,0.4-2.4C45.3,7.7,45.1,7.2,44.7,6.9z M43.4,9.8
			c-0.5,0.5-1.3,0.1-1.5-0.6c-0.2-0.6,0.4-1,0.9-1.3c0.2-0.1,0.7-0.1,1,0.2C44.2,8.6,43.9,9.3,43.4,9.8z"/>
		<path class="st2" d="M34.4,80L34.4,80L34.4,80z"/>
		<path class="st2" d="M68.8,24.9C68.8,9.8,65,0,65,0H3.8C3.8,0,0,9.8,0,24.9c0,22.7,13.6,49,34.4,55.1
			C55.2,73.9,68.8,47.6,68.8,24.9z M4.4,0.8h60.1c0,0,3.6,9.4,3.7,24c-0.7,0.7-1.6,1.2-2.9,1.2c-3.1,0-3.7-3-5.8-4.1
			c1.1-1.6,1.9-3.3,2.2-5.5c0.3-2.3-0.3-2.6-0.5-4c-0.2-1.3-1.3-2.3-0.9-3.9c0.4-1.7,1-2.5,1.8-3.1s1.5-2.1,1.5-2.9
			c0,0-1.8-0.4-2.8,0.6l-2.6,2.6c-0.2,0-3.3-1.1-5.2,0s-3.1,2.6-3,3.2c0.9,0.1,1.3-1,2.2-0.8c1,0.2,3.3,0.8,3.3,4.3S54,17.1,52,18.2
			c-2,1-3.3,1-3.9,0c-0.5-1-0.3-2.7-0.3-4.4s0.6-2.3,0.7-3.8c0.1-1.5,0.1-2.8,0.1-3s0.7-0.6,0.7-1.3s-0.3-1.2-1.1-2
			s-1.1-1.1-1.7-1.1c-0.6-0.1-1,0.1-1.3,0.4s-1.3,0-2.3,0.1c-0.9,0.1-3,1-4,2.1s-1.3,1.5-1.8,2.6c-0.4,1-0.3,1.7-0.3,2
			s-1.1,0.4-1.7,1.5s-0.7,2.7-0.3,5.2c0.3,2.5,1.7,5.3,3,7.1c0.1,0.2,0.3,0.4,0.5,0.5c-0.8,1-1.8,2-3.3,2.1L25.5,0.8l-7.8,20
			l-7.3-20L0.8,20.4C1.4,8.3,4.4,0.8,4.4,0.8z M57.5,18.3h1.2c0.9,0,0.6,0.7,0.3,1.2c-0.3,0.6-1.1,2.1-1.6,2.8
			c-0.5,0.7-1.1,0.7-1.4,0c-0.2-0.7-0.4-1.6-0.4-2.8C55.8,18.4,56.4,18.4,57.5,18.3z M55.7,15.5c-0.1-0.8,0.8-0.5,0.8,0
			s0.1,0.8,0.5,0.9s0.3,0.5,0,0.6s-0.6,0.2-0.9,0C55.9,16.9,55.9,16.4,55.7,15.5z M58.2,15.5c-0.4-0.1-0.8-1.1-1.1-2
			c-1.1-3.5-1.3-5-3.2-6.1c-1.2-0.7-0.4-0.6,0-0.7s0.2-0.2,0.8-0.2c0.5,0,1.9,0.5,2.5,0.7s0.9,0.3,1.3,0.1c0.3-0.3,0.5,0,0.3,0.5
			s0.1,1.5,0.3,2.4s0.8,2.7,1.1,3.3c0.4,0.6,0.3,1.5-0.1,1.7C59.7,15.4,58.7,15.7,58.2,15.5z M53.3,21.9c0.3,0.2,1.4,1.7,1.7,2.1
			s0.2,0.9-0.1,1s-1.7,0.9-2.1,1c-0.4,0.2-1,0.1-1.1-0.8c-0.1-0.8-0.3-1.3-0.1-2.9S52.8,21.6,53.3,21.9z M53.1,19
			c0.6-0.4,0.9-1,1.1-1c0.1,0,0.6-0.1,0.1,0.7c-0.2,0.3-0.4,0.5-0.7,0.6C53.4,19.4,52.4,19.4,53.1,19z M47.2,7.8
			c0.2,0.6,0.4,1.7,0,2.7c-0.4,0.9-1.2,2.5-1.4,2.8s-0.5,0.9-0.6,0.1c0-0.8-0.2-1-0.6-1.3c-0.4-0.3-1.1-0.1-1.5,0.4
			s-0.2,0.9,0.3,1.2c0,0,0.9,0.3,0.6,1.4c-0.3,1.1-0.7,2.3-1.1,0.8s-0.8-2.6-1.4-1.4c-0.6,1.1-0.5,1.4-0.9,1.8
			c-0.3,0.4-1,0.3-0.3-0.7c0.6-1,1.3-1.6,1.4-2.4c0.1-0.8,0.4-1.8-0.1-1.8h-1.4c-0.4,0-0.7-0.1-0.6-0.5c0.1-0.4-0.1-0.9,0-1.2
			s0-0.6-0.4-0.6h-1.1c-0.2,0-0.5-0.4,0-1.1s1.9-2.9,3.6-3.4c1.7-0.4,2.4-0.7,2.7,0c0.2,0.7,0.4,1.4,1,1.8C45.9,6.9,47,7.3,47.2,7.8
			z M45.5,3.9c0.1-0.1,0.3,0,0.8,0.4c0,0,1.1,1,1.2,1.2C47.6,5.7,47.6,6,47.4,6c-0.2,0.1-0.5,0.3-0.9-0.2s-0.8-1.1-0.9-1.4
			C45.5,4.1,45.4,4,45.5,3.9z M46,15.6c-0.1,0.3-0.7,0.6-0.7-0.2s0.5-1.7,0.7-0.7C46,14.7,46.1,15.3,46,15.6z M42.3,20
			c0.1,0,0.2,0.2,0.1,0.4c0,0.3-0.2,0.4-0.3,0.1c0-0.3-0.1-0.2-0.3-0.3C41.6,20.2,42,20.1,42.3,20z M41.2,18.3
			c-0.3-0.1,0.2-0.5,0.4-0.6s0.4,0.1,0.7,0.3C42.6,18.3,41.5,18.4,41.2,18.3z M38.9,13.2c0.8,0.2,0.8,0.4,0.3,0.8s-0.9,0.9-1.8,0.7
			C36.5,14.4,36.2,14,36,13s0.2-1.3,0.6-1.5c0.4-0.3,0.6-0.1,0.9,0.4C37.7,12.4,38.4,13.1,38.9,13.2z M37.5,17.5
			c0.2,0.1,0.7,0.5,0.9,0.7s0.8,0.8,1.1,1.3s-0.1,0.8-0.5,1.4c-0.4,0.5-0.6,0.4-0.8,0c-0.3-0.4-1.1-1.8-1.2-2.7
			C37,17.3,37.3,17.4,37.5,17.5z M40,22.6c0.3-0.3,0.6-1.1,1.1-1.2s0.2,0.7,0.2,1.3c0.1,0.6,0.5,1.1,1.4,1.1s2.1-1.1,2.7-1.2
			c0.6-0.1,1.4,0,1.6,0.1c0.2,0.1,0.4,0.4,0.7,1s0.1,1.4-0.7,1.5s-1.2,0.2-1.6,0.8c-0.4,0.6-0.8,0.6-1.4,0.3
			c-0.5-0.3-3.5-1.5-4.2-2.2S39.7,22.9,40,22.6z M47.4,20.6c-0.4-0.2-0.6-0.4-0.5-1.2c0.1-0.8,0.8,0,1,0.2c0,0,0.2,0.1,0.5,0.3
			c0.3,0.2,0.2,0.5,0,0.6C48.3,20.6,47.8,20.8,47.4,20.6z M48.9,25.5c0.3-0.3,0.3-0.4,0.3-1.3c0.1-0.8,0.6-0.6,0.8-0.3
			c0.1,0.2,0.2,0.4,0.2,0.9s0,0.7-0.3,1s-0.6,0.6-1.3,0.7C48,26.5,48.6,25.7,48.9,25.5z M2.4,39.8c-0.6-2.6-1.1-5.3-1.4-7.9
			c0.6,0.5,1.4,0.9,2.5,0.9c3.9,0,3.9-4.6,7.7-4.6c3.9,0,3.9,4.6,7.7,4.6c3.9,0,3.9-4.6,7.7-4.6c3.9,0,3.9,4.6,7.7,4.6
			c3.9,0,3.9-4.6,7.7-4.6c3.9,0,3.9,4.6,7.7,4.6c3.9,0,3.9-4.6,7.7-4.6c3.9,0,3.9,4.6,7.7,4.6c1.1,0,1.9-0.4,2.5-0.9
			c-0.3,2.6-0.8,5.3-1.4,7.9c-0.2,0.1-0.6,0.2-1,0.2c-3.9,0-3.9-4.6-7.7-4.6c-3.9,0-3.9,4.6-7.7,4.6c-3.9,0-3.9-4.6-7.7-4.6
			c-3.9,0-3.9,4.6-7.7,4.6c-3.9,0-3.9-4.6-7.7-4.6c-3.9,0-3.9,4.6-7.7,4.6c-3.9,0-3.9-4.6-7.7-4.6c-3.9,0-3.9,4.6-7.7,4.6
			C3.1,40,2.8,39.9,2.4,39.8z M11.3,53.1c-1.6,0-2.5,0.8-3.3,1.7c-0.8-1.6-1.6-3.2-2.2-4.9c1.9-1.3,2.6-4,5.6-4
			c3.9,0,3.9,4.6,7.7,4.6c3.9,0,3.9-4.6,7.7-4.6c3.9,0,3.9,4.6,7.7,4.6c3.9,0,3.9-4.6,7.7-4.6c3.9,0,3.9,4.6,7.7,4.6
			c3.9,0,3.9-4.6,7.7-4.6c3,0,3.7,2.7,5.6,4c-0.7,1.7-1.4,3.3-2.2,4.9c-0.8-0.9-1.7-1.7-3.3-1.7c-3.9,0-3.9,4.6-7.7,4.6
			c-3.9,0-3.9-4.6-7.7-4.6c-3.9,0-3.9,4.6-7.7,4.6c-3.9,0-3.9-4.6-7.7-4.6c-3.9,0-3.9,4.6-7.7,4.6C15.1,57.7,15.1,53.1,11.3,53.1z
			 M34.4,79.2c-7-2-13.1-6.4-18.1-12.1c0.7,0.6,1.5,1.1,2.7,1.1c3.9,0,3.9-4.6,7.7-4.6c3.9,0,3.9,4.6,7.7,4.6c3.9,0,3.9-4.6,7.7-4.6
			c3.9,0,3.9,4.6,7.7,4.6c1.2,0,2.1-0.5,2.7-1.1C47.5,72.9,41.4,77.2,34.4,79.2z"/>
	</g>
	<g>
		<path class="st0" d="M81.9,25.1c3.7,0,7.5,0,11.2,0c1.9,0,3.9,0,5.8,0c0,1.5,0,3,0,4.5c-3.6,0-7.2,0-10.9,0c0,1.4,0,2.7,0,4.1
			c3.4,0,6.8,0,10.2,0c0,1.5,0,3,0,4.5c-3.4,0-6.8,0-10.2,0c0,2,0,3.9,0,5.9c3.6,0,7.3,0,11,0c0,1.5,0,3,0,4.5c-0.2,0-0.3,0-0.5,0
			c-5.4,0-10.7,0-16.1,0c-0.2,0-0.3,0-0.5-0.1C81.9,40.8,81.9,33,81.9,25.1z"/>
		<path class="st0" d="M149.6,12.8c0,1.6,0,3.2,0,5c0.3-0.2,0.5-0.3,0.6-0.4c0.9-0.6,1.9-1,3-0.9c1.6,0.1,2.7,1,3,2.6
			c0.1,0.8,0.1,1.5,0.1,2.3c0,1.8,0,3.5,0,5.3c-0.6,0-1.1,0-1.7,0c0-0.2,0-0.4,0-0.7c0-1.5,0-3.1,0-4.6c0-0.3,0-0.7,0-1
			c-0.1-2-1.2-2.7-3.1-2.1c-0.1,0-0.2,0.1-0.3,0.1c-1.5,0.6-1.6,0.7-1.6,2.4c0,1.8,0,3.5,0,5.3c0,0.2,0,0.4,0,0.7
			c-0.6,0-1.1,0-1.7,0c0-0.2,0-0.5,0-0.7c0-4.1,0-8.3,0-12.4c0-0.2,0-0.5-0.1-0.7C148.5,12.8,149,12.8,149.6,12.8z"/>
		<path class="st0" d="M121.4,48.7c-1.9,0-3.8,0-5.8,0c0-0.2,0-0.5,0-0.7c0-3.4,0-6.7-0.1-10.1c0-0.2,0-0.3,0-0.5
			c-0.1-1.5-0.8-2.1-2.3-2.3c-1.3-0.2-2.4,0.3-3.4,0.9c-0.2,0.1-0.2,0.4-0.2,0.7c0,3.7,0,7.5,0,11.2c0,0.2,0,0.5,0,0.8
			c-1.9,0-3.8,0-5.7,0c0-5.9,0-11.8,0-17.7c1.9,0,3.7,0,5.7,0c0,0.6,0,1.2,0,1.9c0.7-0.5,1.4-0.9,2-1.3c1.7-1,3.5-1.3,5.4-0.9
			c1.6,0.4,2.8,1.4,3.6,2.8c0.8-0.6,1.6-1.1,2.4-1.6c1.4-0.9,3-1.5,4.8-1.4c3,0.3,4.9,2,5.2,5.1c0.1,0.7,0.1,1.3,0.1,2
			c0,3.5,0,6.9,0,10.4c0,0.2,0,0.4,0,0.7c-1.9,0-3.8,0-5.8,0c0-0.2,0-0.5,0-0.7c0-3.3-0.1-6.7-0.1-10c0-2.6-1.5-3.2-3.9-2.7
			c0,0,0,0-0.1,0c-1.8,0.5-1.9,0.7-1.9,2.6c0,3.4,0,6.8,0,10.2C121.4,48.2,121.4,48.4,121.4,48.7z"/>
		<path class="st0" d="M138.4,30.9c1.9,0,3.8,0,5.7,0c0,0.6,0,1.2,0,1.9c0.3-0.2,0.4-0.3,0.6-0.4c1.3-0.9,2.5-1.7,4.1-1.9
			c2.7-0.4,4.9,0.4,6.4,3c0.5-0.4,1-0.8,1.6-1.1c1.2-0.8,2.5-1.6,4-1.8c4-0.6,6.8,1.7,6.9,5.8c0.1,4,0,8,0,12.1c0,0.1,0,0.2,0,0.3
			c-1.9,0-3.8,0-5.7,0c0-0.2,0-0.4,0-0.6c0-3.1,0-6.2,0-9.3c0-0.7-0.1-1.5-0.2-2.2c-0.1-0.7-0.7-1.1-1.4-1.3c-1.5-0.4-2.9,0-4.1,0.8
			c-0.1,0.1-0.2,0.4-0.2,0.6c0,3.8,0,7.5,0,11.3c0,0.2,0,0.5,0,0.8c-1.9,0-3.8,0-5.8,0c0-0.2,0-0.4,0-0.7c0-3,0-6.1,0-9.1
			c0-0.8-0.1-1.5-0.2-2.3c-0.2-0.8-0.7-1.2-1.5-1.4c-1.5-0.4-2.8,0.1-4,0.9c-0.1,0.1-0.2,0.4-0.2,0.6c0,3.8,0,7.6,0,11.3
			c0,0.2,0,0.4,0,0.7c-1.9,0-3.8,0-5.7,0C138.4,42.7,138.4,36.9,138.4,30.9z"/>
		<path class="st0" d="M178.5,47.8c0.1,1-0.6,0.9-1.2,0.9c-1.5,0-2.9,0-4.4,0c0-8.2,0-16.4,0-24.6c1.9,0,3.7,0,5.7,0
			c0,2.9,0,5.7,0,8.6c0.8-0.5,1.4-0.9,2.1-1.3c4.4-2.4,8.9-0.5,10.3,4.3c0.8,2.7,0.8,5.4-0.2,8c-2.1,5.3-7.1,6.4-11.4,4.6
			C179.1,48.1,178.9,48,178.5,47.8z M178.6,40.1c0,1.3,0,2.6,0,4c0,0,0,0,0,0.1c-0.1,0.4,0.1,0.6,0.5,0.6c1,0.1,2,0.3,3,0.1
			c1.8-0.2,2.9-1.3,3.3-3.1c0.4-1.5,0.3-3,0-4.5c-0.4-1.6-1.3-2.5-2.8-2.6c-1.2-0.1-2.4,0.1-3.5,0.7c-0.4,0.2-0.5,0.4-0.5,0.8
			C178.6,37.5,178.6,38.8,178.6,40.1z"/>
		<path class="st0" d="M256.7,24c1.9,0,3.8,0,5.7,0c0,4.8,0,9.7,0,14.5c0,0,0.1,0,0.1,0.1c0.2-0.2,0.3-0.4,0.5-0.6
			c1.8-2.2,3.5-4.5,5.3-6.7c0.1-0.2,0.4-0.4,0.6-0.4c2,0,4.1,0,6.3,0c-2.2,2.6-4.3,5.1-6.4,7.7c2.3,3.3,4.5,6.7,6.8,10.1
			c-0.3,0-0.4,0.1-0.6,0.1c-1.8,0-3.7,0-5.5,0c-0.4,0-0.6-0.1-0.8-0.5c-1.5-2.4-3.1-4.8-4.7-7.3c-0.5,0.6-1,1.2-1.5,1.8
			c-0.1,0.1-0.1,0.4-0.1,0.6c0,1.5,0,3.1,0,4.6c0,0.2,0,0.4,0,0.7c-1.9,0-3.8,0-5.7,0C256.7,40.5,256.7,32.3,256.7,24z"/>
		<path class="st0" d="M230.1,39.8c0,2-0.4,4-1.5,5.7c-1.2,1.8-2.9,2.9-4.9,3.4c-2.2,0.6-4.5,0.6-6.7,0c-3.6-0.9-6-3.7-6.3-7.4
			c-0.2-1.6-0.1-3.2,0.3-4.7c0.9-3.4,3.6-5.7,7.3-6.2c1.7-0.2,3.5-0.2,5.2,0.2c3.9,0.9,6.5,3.9,6.7,7.9
			C230.1,39,230.1,39.4,230.1,39.8z M216.4,39.8c0.2,1,0.2,2,0.5,2.9c0.5,1.7,1.6,2.5,3.3,2.5c1.8,0,3-0.7,3.5-2.3
			c0.7-2.2,0.7-4.4-0.1-6.6c-0.5-1.4-1.7-2-3.2-2c-1.5,0-2.6,0.6-3.3,2C216.6,37.4,216.5,38.6,216.4,39.8z"/>
		<path class="st0" d="M242.8,30.2c1.3,0.2,2.6,0.3,3.8,0.7c3.5,1.1,5.3,3.6,5.8,7.1c0.2,1.6,0.2,3.3-0.3,4.9
			c-0.9,3.5-3.7,5.8-7.4,6.2c-1.7,0.2-3.3,0.2-5-0.2c-4-0.9-6.5-3.9-6.7-7.9c-0.1-1.4,0-2.8,0.3-4.2c0.8-3.5,3.6-5.9,7.3-6.4
			c0.7-0.1,1.4-0.1,2.1-0.2C242.8,30.3,242.8,30.2,242.8,30.2z M246.7,40c-0.2-1.1-0.3-2.2-0.6-3.2c-0.5-1.6-1.7-2.4-3.4-2.4
			c-1.7,0-2.8,0.7-3.4,2.4c-0.7,2.1-0.7,4.2,0,6.2c0.5,1.6,1.6,2.3,3.3,2.3c1.7,0,2.9-0.6,3.4-2.1C246.4,42.1,246.5,41,246.7,40z"/>
		<path class="st0" d="M195.7,30.9c1.9,0,3.8,0,5.7,0c0,0.8,0,1.6,0,2.6c2.1-1.9,4.4-3,7.2-2.6c0,1.8,0,3.6,0,5.4
			c-0.3,0-0.6-0.1-0.8-0.1c-2-0.3-3.9-0.2-5.8,0.3c-0.4,0.1-0.6,0.3-0.6,0.8c0,3.5,0,7.1,0,10.6c0,0.2,0,0.4,0,0.7
			c-1.9,0-3.8,0-5.7,0C195.7,42.7,195.7,36.9,195.7,30.9z"/>
		<path class="st0" d="M206.4,55c-1.2-0.4-2.3-1-3.5-1.3c-1.1-0.3-2.3-0.3-3.4,0.1c-1.4,0.5-2,1.6-1.6,2.9c0.2,0.8,0.9,1.2,1.7,1.4
			c1,0.2,2.1,0.4,3.1,0.6c0.6,0.1,1.2,0.3,1.8,0.5c1.4,0.5,2.4,1.3,2.6,2.9c0.2,1.6-0.4,2.9-1.6,3.9c-1.1,0.9-2.4,1.2-3.8,1.3
			c-1.9,0.1-3.8-0.3-5.5-1c-0.3-0.1-0.4-0.3-0.4-0.6c0-0.6,0-1.3,0-2.1c0.3,0.2,0.4,0.3,0.6,0.4c2.1,1.3,4.3,2,6.7,1.4
			c1.3-0.3,2-1.1,2.1-2.2c0-1.1-0.3-1.7-1.4-2.1c-1.1-0.3-2.3-0.5-3.4-0.7c-0.8-0.2-1.7-0.4-2.4-0.8c-2.4-1.2-2.8-4.5-0.7-6.3
			c1.1-0.9,2.4-1.3,3.8-1.4c1.7-0.1,3.4,0.2,5.1,0.8c0.3,0.1,0.5,0.3,0.5,0.7C206.4,53.9,206.4,54.5,206.4,55z"/>
		<path class="st0" d="M222.5,56.8c1.1-0.4,2.1-1,3.1-1.2c2.3-0.5,4.1,0.9,4.2,3.2c0.1,2.6,0,5.3,0,8c-0.6,0-1.1,0-1.8,0
			c0-0.2,0-0.4,0-0.6c0-1.7,0-3.4,0-5.2c0-0.5,0-0.9,0-1.4c-0.1-1.9-1.2-2.7-3-2.2c-0.8,0.2-1.5,0.7-2.2,1c-0.2,0.1-0.3,0.4-0.3,0.7
			c0,2.4,0,4.7,0,7.1c0,0.2,0,0.4,0,0.7c-0.6,0-1.2,0-1.8,0c0-5.1,0-10.2,0-15.3c0.6,0,1.1,0,1.8,0
			C222.5,53.3,222.5,55.1,222.5,56.8z"/>
		<path class="st0" d="M245.1,61.3c0-1.4,0.3-2.8,1.2-4c1.2-1.6,3.3-2.2,5.4-1.7c1.9,0.5,3.4,2.1,3.6,4.3c0.1,1.1,0.1,2.2-0.1,3.3
			c-0.5,2.6-2.5,4-5.2,3.9c-2.4-0.1-4.3-1.8-4.7-4.3C245.1,62.4,245.1,61.9,245.1,61.3z M253.5,61.3c-0.2-0.8-0.3-1.7-0.6-2.5
			c-0.4-1.2-1.5-1.8-2.8-1.8c-1.3,0-2.3,0.6-2.8,1.8c-0.6,1.6-0.6,3.2,0,4.8c0.5,1.3,1.5,1.9,2.8,1.9c1.3,0,2.3-0.7,2.8-1.9
			C253.3,62.9,253.3,62.1,253.5,61.3z"/>
		<path class="st0" d="M243,61c0,1.4-0.2,2.6-0.7,3.6c-1,1.8-3,2.8-5.1,2.5c-2.2-0.3-3.8-1.8-4.2-4c-0.3-1.3-0.3-2.6,0.1-3.9
			c0.7-2.4,2.5-3.8,5.1-3.7c2.4,0.1,4.2,1.6,4.7,4C242.9,60.1,242.9,60.7,243,61z M234.5,61.3c0.2,0.8,0.3,1.7,0.6,2.5
			c0.5,1.2,1.5,1.7,2.7,1.7c1.2,0,2.2-0.5,2.7-1.7c0.7-1.7,0.7-3.4,0-5c-0.5-1.2-1.5-1.7-2.8-1.7c-1.3,0-2.3,0.5-2.7,1.8
			C234.8,59.6,234.7,60.5,234.5,61.3z"/>
		<path class="st0" d="M167.8,21.9c-2.4,0-4.8,0-7.2,0c-0.3,2.2,1.6,3.9,3.9,3.5c1.1-0.2,2.1-0.6,3.2-0.9c0,0.4,0,0.9,0,1.4
			c0,0.1-0.2,0.2-0.3,0.3c-1.7,0.7-3.5,1-5.3,0.5c-1.9-0.6-3-1.9-3.2-3.8c-0.1-1-0.1-2.2,0.2-3.2c0.8-2.8,4.2-4.2,6.7-2.7
			c0.6,0.3,1.1,0.9,1.5,1.5C167.9,19.3,168,20.8,167.8,21.9z M166.2,20.6c0.1-1.7-0.9-2.8-2.7-2.8c-1.7,0-3,1.3-2.9,2.8
			C162.5,20.6,164.3,20.6,166.2,20.6z"/>
		<path class="st0" d="M218.2,64.1c0,0.7,0,1.3,0,1.8c0,0.1-0.2,0.3-0.3,0.4c-1.6,0.8-3.2,1-5,0.6c-1.8-0.5-3-1.7-3.5-3.5
			c-0.4-1.4-0.4-2.7,0-4.1c0.6-2.4,2.6-3.8,5.2-3.8c1.1,0,2.2,0.3,3.2,0.8c0.1,0.1,0.3,0.3,0.3,0.4c0,0.6,0,1.2,0,1.8
			c-0.3-0.2-0.4-0.3-0.6-0.4c-1-0.6-2-1.1-3.2-1c-1.5,0-2.6,0.9-3,2.3c-0.3,1.1-0.4,2.3-0.1,3.5c0.5,1.9,2,2.9,4,2.5
			c0.8-0.2,1.5-0.6,2.3-0.9C217.8,64.4,218,64.2,218.2,64.1z"/>
		<path class="st0" d="M146.3,13.5c0,0.5,0,1,0,1.5c-1.6,0-3.1,0-4.7,0c0,3.9,0,7.8,0,11.7c-0.6,0-1.2,0-1.8,0c0-3.8,0-7.7,0-11.6
			c-1.6,0-3.1,0-4.7,0c0-0.5,0-1,0-1.5C138.7,13.5,142.5,13.5,146.3,13.5z"/>
		<path class="st0" d="M258.3,51.5c0.6,0,1.2,0,1.8,0c0,5.1,0,10.2,0,15.4c-0.6,0-1.1,0-1.8,0C258.3,61.7,258.3,56.6,258.3,51.5z"/>
	</g>
</g>
</svg>
