<svg width="155" height="49" viewBox="0 0 155 49" fill="none" xmlns="http://www.w3.org/2000/svg">
<g clip-path="url(#clip0_1911_9417)">
<path d="M16.1555 17.1541H16.2143L17.8782 1.33337H22.9286L19.1471 23.8926H13.1555L11.521 8.00923H11.4622L9.70588 23.8926H3.80672L0 1.33337H5.14286L6.7479 17.1833L6.80672 17.1248L8.95378 1.33337H14.0966L16.1555 17.1541Z" fill="black"/>
<path d="M38.8739 16.7029C38.8739 21.7871 37.0882 24.4315 31.7058 24.4315C26.3235 24.4315 24.4453 21.7829 24.4453 16.7029V7.52881C24.4453 3.1966 27.0462 0.790283 31.7058 0.790283C36.3655 0.790283 38.8739 3.1966 38.8739 7.52881V16.7029ZM33.5504 7.88808C33.5504 6.50529 33.4285 4.85094 31.6764 4.85094C29.9243 4.85094 29.7688 6.50529 29.7688 7.88808V17.1541C29.7688 18.4491 29.9789 20.3709 31.7058 20.3709C33.4327 20.3709 33.5504 18.445 33.5504 17.1541V7.88808Z" fill="black"/>
<path d="M41.3867 23.8926V1.33337H46.7102V10.3571H46.7691L50.7018 1.33337H56.1472L51.3069 11.2887L56.4497 23.8926H50.8237L47.8909 16.0428L46.7102 18.328V23.8926H41.3867Z" fill="black"/>
<path d="M58.416 23.8926V1.33337H63.7395V23.8926H58.416Z" fill="black"/>
<path d="M71.2139 11.2594L71.1551 11.3179L71.6383 23.8926H66.5879V1.33337H72.0627L76.1761 13.9373H76.2686L75.756 1.33337H80.8064V23.8926H75.361L71.2181 11.2594H71.2139Z" fill="black"/>
<path d="M93.9626 23.9218L93.7189 21.9082H93.6601C92.5719 23.8341 91.3618 24.4357 89.0635 24.4357C84.5551 24.4357 83.1055 21.3359 83.1055 17.246V7.97999C83.1055 3.07545 85.3744 0.790283 90.2441 0.790283C94.7819 0.790283 97.4752 2.71617 97.4752 7.31575V8.99933H92.1517V7.76693C92.1517 5.84104 91.908 4.88019 90.4878 4.85094C88.824 4.8217 88.429 5.72407 88.429 7.19877V18.3572C88.429 19.6189 89.0046 20.3709 90.3954 20.3709C92.2105 20.3709 92.2693 18.9254 92.2693 17.4841V15.7086H90.3618V11.648H97.5929V23.9218H93.9626Z" fill="black"/>
<path d="M100.164 23.8926V1.33337H105.488V9.99779H109.177V1.33337H114.5V23.8926H109.177V14.5096H105.488V23.8926H100.164Z" fill="black"/>
<path d="M116.017 23.8926L120.979 1.33337H127.391L132.323 23.8926H126.937L126.18 19.5019H122.004L121.37 23.8926H116.017ZM124.185 5.42328H124.126L122.584 15.529H125.668L124.185 5.42328Z" fill="black"/>
<path d="M134.046 23.8926V1.33337H141.55L144.302 14.66H144.361L147.206 1.33337H154.647V23.8926H149.563L150.109 6.20449H150.05L146.298 23.8926H142.336L138.676 6.20449H138.617L139.101 23.8926H134.05H134.046Z" fill="black"/>
<path d="M0.974609 33.2672H5.91579C8.33595 33.2672 10.0754 34.1738 10.0754 36.9978C10.0754 38.5853 9.31495 39.801 7.86116 40.2146V40.2564C9.47881 40.482 10.525 41.7186 10.525 43.6779C10.525 45.9839 9.39898 47.985 5.9536 47.985H0.974609V33.2714V33.2672ZM3.92839 39.3039H4.76873C6.38637 39.3039 7.12587 38.7483 7.12587 37.3655C7.12587 35.9827 6.4494 35.4479 4.99562 35.4479H3.92839V39.2997V39.3039ZM3.92839 45.7959H5.07545C6.49142 45.7959 7.4536 45.2821 7.4536 43.5693C7.4536 41.8564 6.49142 41.3635 5.1973 41.3635H3.92839V45.7959Z" fill="black"/>
<path d="M17.0506 32.979C21.4791 32.979 22.0338 36.154 22.0338 40.6241C22.0338 45.0941 21.4791 48.2691 17.0506 48.2691C12.622 48.2691 12.0674 45.0941 12.0674 40.6241C12.0674 36.154 12.622 32.979 17.0506 32.979ZM17.0506 46.0842C18.7943 46.0842 19.08 44.5803 19.08 40.6241C19.08 36.6679 18.7943 35.1639 17.0506 35.1639C15.3069 35.1639 15.0212 36.6887 15.0212 40.6241C15.0212 44.5594 15.3069 46.0842 17.0506 46.0842Z" fill="black"/>
<path d="M23.7728 33.2672H29.2265C31.6467 33.2672 33.1215 34.5456 33.1215 37.0605C33.1215 39.0198 32.3442 40.3358 30.6803 40.6867V40.7285C32.6887 40.9958 32.9954 42.1071 33.0375 45.2194C33.0585 46.7651 33.1383 47.5673 33.6929 47.8555V47.9808H30.4954C30.2097 47.5673 30.1467 47.0116 30.1257 46.4351L30.0459 43.611C30.0039 42.458 29.4912 41.7562 28.3022 41.7562H26.7223V47.9808H23.7686V33.2672H23.7728ZM26.7265 39.6966H27.9576C29.3736 39.6966 30.1719 39.0783 30.1719 37.4908C30.1719 36.1331 29.4534 35.4521 28.1215 35.4521H26.7265V39.6966Z" fill="black"/>
<path d="M39.8445 32.979C44.2731 32.979 44.8277 36.154 44.8277 40.6241C44.8277 45.0941 44.2731 48.2691 39.8445 48.2691C35.416 48.2691 34.8613 45.0941 34.8613 40.6241C34.8613 36.154 35.416 32.979 39.8445 32.979ZM39.8445 46.0842C41.5882 46.0842 41.8739 44.5803 41.8739 40.6241C41.8739 36.6679 41.5882 35.1639 39.8445 35.1639C38.1008 35.1639 37.8151 36.6887 37.8151 40.6241C37.8151 44.5594 38.1008 46.0842 39.8445 46.0842Z" fill="black"/>
<path d="M49.336 33.2672V43.5317C49.336 44.9938 49.6847 46.0884 51.0587 46.0884C52.4326 46.0884 52.7814 44.998 52.7814 43.5317V33.2672H55.7352V43.5317C55.7352 47.2832 53.4579 48.2733 51.0629 48.2733C48.6679 48.2733 46.3906 47.4712 46.3906 43.5317V33.2672H49.3444H49.336Z" fill="black"/>
<path d="M64.1009 37.6371C64.1009 36.5467 63.6093 35.1639 62.4202 35.1639C60.9832 35.1639 60.4118 36.647 60.4118 40.3149C60.4118 43.9829 60.7395 46.0842 62.4412 46.0842C63.1387 46.0842 64.2647 45.3197 64.2647 43.7364V42.2325H62.3152V40.0476H67.0925V47.9809H64.9202V46.6232H64.8782C64.1807 47.7762 63.1765 48.2733 61.8025 48.2733C58.1723 48.2733 57.458 45.5537 57.458 40.4611C57.458 35.3686 58.6051 32.979 62.3782 32.979C65.6177 32.979 66.9286 34.6501 66.9286 37.6371H64.1009Z" fill="black"/>
<path d="M69 33.2672H71.9538V38.8945H75.3992V33.2672H78.3529V47.9808H75.3992V41.447H71.9538V47.9808H69V33.2672Z" fill="black"/>
<path d="M91.5669 38.2345C91.5669 36.0913 91.1384 35.1639 89.8022 35.1639C88.3064 35.1639 87.9577 36.6679 87.9577 40.8288C87.9577 45.2821 88.5711 46.0842 89.8442 46.0842C90.9115 46.0842 91.6888 45.5286 91.6888 42.3536H94.6426C94.6426 45.5286 93.8653 48.2691 89.9871 48.2691C85.5585 48.2691 85.0039 45.0941 85.0039 40.6241C85.0039 36.154 85.5585 32.979 89.9871 32.979C94.4157 32.979 94.5165 36.0913 94.5165 38.2345H91.5627H91.5669Z" fill="black"/>
<path d="M101 32.979C105.428 32.979 105.983 36.154 105.983 40.6241C105.983 45.0941 105.428 48.2691 101 48.2691C96.5712 48.2691 96.0166 45.0941 96.0166 40.6241C96.0166 36.154 96.5712 32.979 101 32.979ZM101 46.0842C102.743 46.0842 103.029 44.5803 103.029 40.6241C103.029 36.6679 102.743 35.1639 101 35.1639C99.2561 35.1639 98.9704 36.6887 98.9704 40.6241C98.9704 44.5594 99.2561 46.0842 101 46.0842Z" fill="black"/>
<path d="M110.491 33.2672V43.5317C110.491 44.9938 110.84 46.0884 112.214 46.0884C113.588 46.0884 113.937 44.998 113.937 43.5317V33.2672H116.89V43.5317C116.89 47.2832 114.613 48.2733 112.218 48.2733C109.823 48.2733 107.546 47.4712 107.546 43.5317V33.2672H110.5H110.491Z" fill="black"/>
<path d="M122.155 33.2672L125.723 43.3437H125.765V33.2672H128.47V47.9808H125.109L121.5 37.6788H121.458V47.9808H118.752V33.2672H122.155Z" fill="black"/>
<path d="M136.773 38.2345C136.773 36.0913 136.344 35.1639 135.008 35.1639C133.512 35.1639 133.164 36.6679 133.164 40.8288C133.164 45.2821 133.777 46.0842 135.05 46.0842C136.118 46.0842 136.895 45.5286 136.895 42.3536H139.849C139.849 45.5286 139.071 48.2691 135.193 48.2691C130.765 48.2691 130.21 45.0941 130.21 40.6241C130.21 36.154 130.765 32.979 135.193 32.979C139.622 32.979 139.723 36.0913 139.723 38.2345H136.769H136.773Z" fill="black"/>
<path d="M141.672 47.9808V33.2672H144.626V47.9808H141.672Z" fill="black"/>
<path d="M146.819 47.9808V33.2672H149.773V45.5495H155V47.9808H146.819Z" fill="black"/>
</g>
<defs>
<clipPath id="clip0_1911_9417">
<rect width="155" height="47.4788" fill="white" transform="translate(0 0.790283)"/>
</clipPath>
</defs>
</svg>
